<svg width="100%" height="100%" svgwidth="100%" svgheight="100%" id="svg" viewBox="0 0 1440 400"
  xmlns="http://www.w3.org/2000/svg" class="transition duration-300 ease-in-out delay-150">

  <defs>
    <linearGradient id="gradient" x1="0%" y1="50%" x2="100%" y2="50%">
      <stop offset="5%" stop-color="#002bdc88"></stop>
      <stop offset="95%" stop-color="#32ded488"></stop>
    </linearGradient>
  </defs>
  <path
    d="M 0,400 C 0,400 0,133 0,133 C 35.797024780111286,125.50318775254712 71.59404956022257,118.00637550509425 106,119 C 140.40595043977743,119.99362449490575 173.42082653922103,129.47768573217013 201,141 C 228.57917346077897,152.52231426782987 250.72264428289338,166.08288156622513 281,166 C 311.2773557171066,165.91711843377487 349.68859632920544,152.1907880029292 384,132 C 418.31140367079456,111.80921199707079 448.522970400285,85.15396642205808 481,97 C 513.477029599715,108.84603357794192 548.2195220696545,159.19334630883847 582,168 C 615.7804779303455,176.80665369116153 648.5989413210964,144.07264834258802 675,143 C 701.4010586789036,141.92735165741198 721.3847126459601,172.51606032080943 753,163 C 784.6152873540399,153.48393967919057 827.862208095063,103.86311037417421 866,97 C 904.137791904937,90.13688962582579 937.1664549737877,126.03149818249366 963,130 C 988.8335450262123,133.96850181750634 1007.4719720097864,106.01089689585113 1044,101 C 1080.5280279902136,95.98910310414887 1134.9456569870674,113.92491423410175 1166,132 C 1197.0543430129326,150.07508576589825 1204.7454000419434,168.28944616774186 1232,165 C 1259.2545999580566,161.71055383225814 1306.072742845159,136.9173010949309 1344,128 C 1381.927257154841,119.0826989050691 1410.9636285774204,126.04134945253455 1440,133 C 1440,133 1440,400 1440,400 Z"
    stroke="none" stroke-width="0" fill="url(#gradient)"
    class="transition-all duration-300 ease-in-out delay-150 path-0"></path>

  <defs>
    <linearGradient id="gradient" x1="0%" y1="50%" x2="100%" y2="50%">
      <stop offset="5%" stop-color="#002bdcff"></stop>
      <stop offset="95%" stop-color="#32ded4ff"></stop>
    </linearGradient>
  </defs>
  <path
    d="M 0,400 C 0,400 0,266 0,266 C 29.70348127371721,278.33853676191546 59.40696254743442,290.6770735238309 87,301 C 114.59303745256558,311.3229264761691 140.07563108397954,319.6302426665918 176,316 C 211.92436891602046,312.3697573334082 258.29051311664745,296.8019558098018 293,289 C 327.70948688335255,281.1980441901982 350.7623164494307,281.16193409420094 379,278 C 407.2376835505693,274.83806590579906 440.6602210856295,268.5503078133946 475,280 C 509.3397789143705,291.4496921866054 544.5967992080515,320.6368346522206 574,314 C 603.4032007919485,307.3631653477794 626.9525820821647,264.90235357772286 658,246 C 689.0474179178353,227.09764642227714 727.5928724632898,231.75375103688802 760,232 C 792.4071275367102,232.24624896311198 818.6759280646759,228.08264227472515 855,242 C 891.3240719353241,255.91735772527485 937.7034152780069,287.9156798642113 967,304 C 996.2965847219931,320.0843201357887 1008.5104108232963,320.2546382684296 1038,295 C 1067.4895891767037,269.7453617315704 1114.2549414288073,219.06576706207048 1149,224 C 1183.7450585711927,228.93423293792952 1206.469823461475,289.4822934832887 1240,306 C 1273.530176538525,322.5177065167113 1317.8657647252928,295.00505900477464 1353,281 C 1388.1342352747072,266.99494099522536 1414.0671176373535,266.49747049761265 1440,266 C 1440,266 1440,400 1440,400 Z"
    stroke="none" stroke-width="0" fill="url(#gradient)"
    class="transition-all duration-300 ease-in-out delay-150 path-1"></path>
</svg>