<svg width="100%" height="100%" id="svg" viewBox="0 0 1440 400" xmlns="http://www.w3.org/2000/svg"
  class="transition duration-300 ease-in-out delay-150">

  <defs>
    <linearGradient id="gradient" x1="0%" y1="50%" x2="100%" y2="50%">
      <stop offset="5%" stop-color="#32ded444"></stop>
      <stop offset="95%" stop-color="#002bdc44"></stop>
    </linearGradient>
  </defs>
  <path
    d="M 0,400 C 0,400 0,80 0,80 C 21.549500977042307,89.25434718444546 43.09900195408461,98.50869436889091 80,89 C 116.90099804591539,79.49130563110909 169.1534931607039,51.21956970888179 202,54 C 234.8465068392961,56.78043029111821 248.28702540309985,90.61302679558193 275,92 C 301.71297459690015,93.38697320441807 341.69840522689674,62.32832310879047 377,58 C 412.30159477310326,53.67167689120953 442.9193536893131,76.0736807692562 470,82 C 497.0806463106869,87.9263192307438 520.6241800158508,77.37695381418466 560,80 C 599.3758199841492,82.62304618581534 654.5839262472836,98.41850397400516 688,106 C 721.4160737527164,113.58149602599484 733.040114995015,112.94903028979465 755,105 C 776.959885004985,97.05096971020535 809.2556137726567,81.78537486681623 848,69 C 886.7443862273433,56.21462513318377 931.9374299143585,45.90947024294044 968,55 C 1004.0625700856415,64.09052975705956 1030.9946665699094,92.57674416142204 1061,100 C 1091.0053334300906,107.42325583857796 1124.0839038060037,93.78355311137142 1159,91 C 1193.9160961939963,88.21644688862858 1230.669718206076,96.28904339309231 1260,93 C 1289.330281793924,89.71095660690769 1311.2372233696924,75.06027331625933 1340,71 C 1368.7627766303076,66.93972668374067 1404.3813883151538,73.46986334187034 1440,80 C 1440,80 1440,400 1440,400 Z"
    stroke="none" stroke-width="0" fill="url(#gradient)"
    class="transition-all duration-300 ease-in-out delay-150 path-0" transform="rotate(-180 720 200)" />

  <defs>
    <linearGradient id="gradient" x1="0%" y1="50%" x2="100%" y2="50%">
      <stop offset="5%" stop-color="#002bdc66"></stop>
      <stop offset="95%" stop-color="#32ded466"></stop>
    </linearGradient>
  </defs>
  <path
    d="M 0,400 C 0,400 0,160 0,160 C 24.32542924709894,157.0889037706325 48.65085849419788,154.17780754126503 84,150 C 119.34914150580212,145.82219245873497 165.72199527030745,140.37767360557248 203,144 C 240.27800472969255,147.62232639442752 268.4611604245724,160.31149803644507 295,161 C 321.5388395754276,161.68850196355493 346.4333630314029,150.37633424864728 380,155 C 413.5666369685971,159.62366575135272 455.80538744981584,180.18316496896583 491,187 C 526.1946125501842,193.81683503103417 554.345087169334,186.89100587548947 587,184 C 619.654912830666,181.10899412451053 656.8142638728483,182.25281152907633 687,182 C 717.1857361271517,181.74718847092367 740.397857339273,180.0977480082052 766,175 C 791.602142660727,169.9022519917948 819.59430677006,161.35619643810287 856,160 C 892.40569322994,158.64380356189713 937.2249155804873,164.47746623938323 967,171 C 996.7750844195127,177.52253376061677 1011.5060309079911,184.73393860436417 1042,186 C 1072.493969092009,187.26606139563583 1118.7509607875488,182.58677934316012 1158,169 C 1197.2490392124512,155.41322065683988 1229.4901259418139,132.91894402299536 1262,139 C 1294.5098740581861,145.08105597700464 1327.288535445196,179.73744456485844 1357,188 C 1386.711464554804,196.26255543514156 1413.355732277402,178.13127771757078 1440,160 C 1440,160 1440,400 1440,400 Z"
    stroke="none" stroke-width="0" fill="url(#gradient)"
    class="transition-all duration-300 ease-in-out delay-150 path-1" transform="rotate(-180 720 200)" />

  <defs>
    <linearGradient id="gradient" x1="0%" y1="50%" x2="100%" y2="50%">
      <stop offset="5%" stop-color="#002bdc88"></stop>
      <stop offset="95%" stop-color="#32ded488"></stop>
    </linearGradient>
  </defs>
  <path
    d="M 0,400 C 0,400 0,240 0,240 C 25.804845518236334,245.81817738195565 51.60969103647267,251.6363547639113 88,257 C 124.39030896352733,262.3636452360887 171.36608137234566,267.2727583263104 201,260 C 230.63391862765434,252.72724167368958 242.9259834741447,233.2726119308469 274,219 C 305.0740165258553,204.7273880691531 354.9299847310755,195.63679395030195 394,211 C 433.0700152689245,226.36320604969805 461.3540776015535,266.1802122679453 493,268 C 524.6459223984465,269.8197877320547 559.6537048627107,233.6423569779168 588,222 C 616.3462951372893,210.3576430220832 638.0311029476031,223.25035982038756 665,233 C 691.9688970523969,242.74964017961244 724.2218833468771,249.35620374053286 763,255 C 801.7781166531229,260.64379625946714 847.0813636648888,265.32482521748113 881,261 C 914.9186363351112,256.67517478251887 937.4526619935679,243.34449538954243 969,241 C 1000.5473380064321,238.65550461045757 1041.1079883608395,247.29719322434914 1069,240 C 1096.8920116391605,232.70280677565086 1112.115384563074,209.46673171306105 1138,212 C 1163.884615436926,214.53326828693895 1200.4304733868646,242.83587992340665 1238,254 C 1275.5695266131354,265.16412007659335 1314.162721889467,259.1897485933124 1348,254 C 1381.837278110533,248.8102514066876 1410.9186390552663,244.4051257033438 1440,240 C 1440,240 1440,400 1440,400 Z"
    stroke="none" stroke-width="0" fill="url(#gradient)"
    class="transition-all duration-300 ease-in-out delay-150 path-2" transform="rotate(-180 720 200)" />

  <defs>
    <linearGradient id="gradient" x1="0%" y1="50%" x2="100%" y2="50%">
      <stop offset="5%" stop-color="#002bdcff"></stop>
      <stop offset="95%" stop-color="#32ded4ff"></stop>
    </linearGradient>
  </defs>
  <path
    d="M 0,400 C 0,400 0,320 0,320 C 35.07191012169271,328.9826352689565 70.14382024338542,337.965270537913 104,335 C 137.85617975661458,332.034729462087 170.49662914815102,317.1215531173046 203,322 C 235.50337085184898,326.8784468826954 267.8696631640105,351.5485169928685 301,346 C 334.1303368359895,340.4514830071315 368.02471819580694,304.6843789112214 400,297 C 431.97528180419306,289.3156210887786 462.03146405276186,309.71396736224597 489,314 C 515.9685359472381,318.28603263775403 539.8494255931455,306.4597516397949 572,302 C 604.1505744068545,297.5402483602051 644.5708335746558,300.4470260785746 679,298 C 713.4291664253442,295.5529739214254 741.8672401082312,287.7521440459068 772,293 C 802.1327598917688,298.2478559540932 833.9602059924197,316.5443977377985 862,313 C 890.0397940075803,309.4556022622015 914.2919359220903,284.07026500289925 945,290 C 975.7080640779097,295.92973499710075 1012.8720503192189,333.17454225060436 1054,341 C 1095.127949680781,348.82545774939564 1140.219862801034,327.23156599468336 1168,325 C 1195.780137198966,322.76843400531664 1206.2484984766447,339.8991937706622 1238,344 C 1269.7515015233553,348.1008062293378 1322.7861432923871,339.171658922668 1360,333 C 1397.2138567076129,326.828341077332 1418.6069283538063,323.414170538666 1440,320 C 1440,320 1440,400 1440,400 Z"
    stroke="none" stroke-width="0" fill="url(#gradient)"
    class="transition-all duration-300 ease-in-out delay-150 path-3" transform="rotate(-180 720 200)" />
</svg>