<svg width="96" height="58" viewBox="0 0 96 58" fill="none" xmlns="http://www.w3.org/2000/svg">
<g clip-path="url(#clip0)">
<path fill-rule="evenodd" clip-rule="evenodd" d="M54.8791 19.0167H63.3874V27.7143H67.6894C69.676 27.7143 71.7195 27.3604 73.6009 26.7229C74.5253 26.4094 75.563 25.9732 76.4749 25.4246C75.2738 23.8564 74.6606 21.8764 74.4801 19.9246C74.235 17.27 74.7704 13.8147 76.5671 11.737L77.4615 10.7026L78.5273 11.5593C81.2106 13.7151 83.4672 16.7274 83.865 20.1614C87.0959 19.211 90.8892 19.4358 93.7371 21.0795L94.9055 21.7536L94.2905 22.9539C91.882 27.6545 86.8468 29.1106 81.924 28.853C74.5576 47.2003 58.5202 55.8865 39.0748 55.8865C29.0287 55.8865 19.8116 52.1311 14.563 43.2179L14.4769 43.0724L13.7123 41.5166C11.9381 37.5932 11.3488 33.2951 11.7485 29.0006L11.8685 27.7143H19.144V19.0167H27.6521V10.5083H44.669V2H54.8791V19.0167Z" fill="#364548"/>
<path fill-rule="evenodd" clip-rule="evenodd" d="M82.4447 22.2343C83.0153 17.8007 79.6972 14.3181 77.6395 12.6647C75.2682 15.4062 74.8998 22.5912 78.6199 25.6163C76.5438 27.4604 72.1688 29.132 67.6894 29.132H13.161C12.7254 33.8081 13.5465 38.1141 15.4213 41.8L16.0416 42.9345C16.4344 43.6011 16.8635 44.2444 17.3272 44.8637H17.3274C19.5691 45.0076 21.636 45.0574 23.527 45.0156H23.5278C27.244 44.9333 30.276 44.4949 32.5741 43.6985C32.9163 43.5796 33.2891 43.7611 33.4075 44.1029C33.5257 44.4446 33.3447 44.8177 33.003 44.9363C32.6975 45.0421 32.3788 45.1411 32.0498 45.2352C32.0494 45.2354 32.049 45.2354 32.0486 45.2356C30.2391 45.7521 28.2989 46.0999 25.7954 46.2543C25.9439 46.2567 25.6406 46.2766 25.6398 46.2768C25.5547 46.282 25.4475 46.2942 25.362 46.2989C24.3767 46.3541 23.3132 46.3657 22.2259 46.3657C21.0368 46.3657 19.8656 46.3432 18.5564 46.2768L18.5229 46.2989C23.0663 51.4055 30.1702 54.4682 39.0748 54.4682C57.9207 54.4682 73.906 46.114 80.9844 27.3584C86.0064 27.8737 90.8328 26.5931 93.0283 22.3074C89.5311 20.2893 85.0342 20.9328 82.4447 22.2343Z" fill="#22A0C8"/>
<path fill-rule="evenodd" clip-rule="evenodd" d="M82.4447 22.2343C83.0152 17.8007 79.6972 14.3181 77.6395 12.6647C75.2682 15.4062 74.8998 22.5912 78.6199 25.6163C76.5438 27.4604 72.1688 29.132 67.6894 29.132H16.39C16.1674 36.2933 18.825 41.7292 23.527 45.0156H23.5278C27.244 44.9333 30.276 44.4949 32.5741 43.6985C32.9163 43.5796 33.2891 43.7611 33.4075 44.1029C33.5257 44.4446 33.3447 44.8177 33.003 44.9363C32.6975 45.0421 32.3788 45.1411 32.0498 45.2352C32.0494 45.2354 32.049 45.2354 32.0486 45.2356C30.2391 45.7521 28.1322 46.1445 25.6286 46.2989C25.628 46.2989 25.568 46.2409 25.5672 46.2411C31.9808 49.5311 41.2808 49.5193 51.9431 45.4235C63.8987 40.8307 75.0235 32.0803 82.7861 22.0721C82.6689 22.1249 82.5549 22.1791 82.4447 22.2343Z" fill="#37B1D9"/>
<path fill-rule="evenodd" clip-rule="evenodd" d="M13.2631 34.8134C13.6021 37.3182 14.3346 39.6635 15.4213 41.8L16.0416 42.9345C16.4344 43.6011 16.8635 44.2444 17.3274 44.8637C19.5695 45.0076 21.6366 45.0574 23.5278 45.0156C27.244 44.9333 30.276 44.4949 32.5741 43.6985C32.9163 43.5796 33.2891 43.7611 33.4075 44.1029C33.5257 44.4446 33.3447 44.8177 33.003 44.9363C32.6975 45.0421 32.3788 45.1411 32.0498 45.2352C32.0494 45.2354 32.049 45.2354 32.0486 45.2356C30.2391 45.7521 28.1433 46.1222 25.6398 46.2768C25.5539 46.282 25.404 46.283 25.3173 46.2878C24.3325 46.3432 23.2799 46.3769 22.1924 46.3769C21.0035 46.3769 19.7877 46.3541 18.4786 46.2878C23.0218 51.3943 30.1702 54.4682 39.0748 54.4682C55.2087 54.4682 69.2456 48.3443 77.3926 34.8134H13.2631Z" fill="#1B81A5"/>
<path fill-rule="evenodd" clip-rule="evenodd" d="M16.8808 34.8134C17.8453 39.2113 20.1631 42.6641 23.5278 45.0156C27.244 44.9333 30.276 44.4949 32.5741 43.6985C32.9163 43.5796 33.2891 43.7611 33.4075 44.1029C33.5257 44.4446 33.3447 44.8177 33.003 44.9363C32.6975 45.0421 32.3788 45.1411 32.0498 45.2352C32.0494 45.2354 32.049 45.2354 32.0486 45.2356C30.2391 45.7521 28.0989 46.1222 25.5953 46.2768C32.0085 49.5661 41.2816 49.5189 51.9431 45.4235C58.393 42.9455 64.6006 39.2564 70.1699 34.8134H16.8808Z" fill="#1D91B4"/>
<path fill-rule="evenodd" clip-rule="evenodd" d="M20.5621 20.4346H27.9359V27.8087H20.5621V20.4346ZM21.1763 21.0492H21.7582V27.1946H21.1763V21.0492ZM22.2703 21.0492H22.8755V27.1946H22.2703V21.0492ZM23.3873 21.0492H23.9925V27.1946H23.3873V21.0492ZM24.5049 21.0492H25.1101V27.1946H24.5049V21.0492ZM25.6222 21.0492H26.2274V27.1946H25.6222V21.0492ZM26.7394 21.0492H27.3217V27.1946H26.7394V21.0492Z" fill="#23A3C2"/>
<path fill-rule="evenodd" clip-rule="evenodd" d="M29.07 11.9263H36.4445V19.3001H29.07V11.9263ZM29.6849 12.5409H30.2664V18.6857H29.6849V12.5409ZM30.779 12.5409H31.3838V18.6857H30.779V12.5409ZM31.8958 12.5409H32.501V18.6857H31.8958V12.5409ZM33.0131 12.5409H33.6183V18.6857H33.0131V12.5409ZM34.1307 12.5409H34.7359V18.6857H34.1307V12.5409ZM35.2476 12.5409H35.8303V18.6857H35.2476V12.5409Z" fill="#23A3C2"/>
<path fill-rule="evenodd" clip-rule="evenodd" d="M29.07 20.4346H36.4445V27.8087H29.07V20.4346ZM29.6849 21.0492H30.2664V27.1946H29.6849V21.0492ZM30.779 21.0492H31.3838V27.1946H30.779V21.0492ZM31.8958 21.0492H32.501V27.1946H31.8958V21.0492ZM33.0131 21.0492H33.6183V27.1946H33.0131V21.0492ZM34.1307 21.0492H34.7359V27.1946H34.1307V21.0492ZM35.2476 21.0492H35.8303V27.1946H35.2476V21.0492Z" fill="#34BBDE"/>
<path fill-rule="evenodd" clip-rule="evenodd" d="M37.5786 20.4346H44.9528V27.8087H37.5786V20.4346ZM38.1932 21.0492H38.7747V27.1946H38.1932V21.0492ZM39.287 21.0492H39.8923V27.1946H39.287V21.0492ZM40.4044 21.0492H41.0096V27.1946H40.4044V21.0492ZM41.5218 21.0492H42.127V27.1946H41.5218V21.0492ZM42.6389 21.0492H43.2445V27.1946H42.6389V21.0492ZM43.7563 21.0492H44.3382V27.1946H43.7563V21.0492Z" fill="#23A3C2"/>
<path fill-rule="evenodd" clip-rule="evenodd" d="M37.5786 11.9263H44.9528V19.3001H37.5786V11.9263ZM38.1932 12.5409H38.7747V18.6857H38.1932V12.5409ZM39.287 12.5409H39.8923V18.6857H39.287V12.5409ZM40.4044 12.5409H41.0096V18.6857H40.4044V12.5409ZM41.5218 12.5409H42.127V18.6857H41.5218V12.5409ZM42.6389 12.5409H43.2445V18.6857H42.6389V12.5409ZM43.7563 12.5409H44.3382V18.6857H43.7563V12.5409Z" fill="#34BBDE"/>
<path fill-rule="evenodd" clip-rule="evenodd" d="M46.0871 20.4346H53.461V27.8087H46.0871V20.4346ZM46.7017 21.0492H47.2833V27.1946H46.7017V21.0492ZM47.7957 21.0492H48.4009V27.1946H47.7957V21.0492ZM48.9127 21.0492H49.5179V27.1946H48.9127V21.0492ZM50.0302 21.0492H50.6354V27.1946H50.0302V21.0492ZM51.1476 21.0492H51.7528V27.1946H51.1476V21.0492ZM52.2648 21.0492H52.8469V27.1946H52.2648V21.0492Z" fill="#34BBDE"/>
<path fill-rule="evenodd" clip-rule="evenodd" d="M46.0871 11.9263H53.461V19.3001H46.0871V11.9263ZM46.7017 12.5409H47.2833V18.6857H46.7017V12.5409ZM47.7957 12.5409H48.4009V18.6857H47.7957V12.5409ZM48.9127 12.5409H49.5179V18.6857H48.9127V12.5409ZM50.0302 12.5409H50.6354V18.6857H50.0302V12.5409ZM51.1476 12.5409H51.7528V18.6857H51.1476V12.5409ZM52.2648 12.5409H52.8469V18.6857H52.2648V12.5409Z" fill="#23A3C2"/>
<path fill-rule="evenodd" clip-rule="evenodd" d="M46.0871 3.41788H53.461V10.792H46.0871V3.41788ZM46.7017 4.03206H47.2833V10.1775H46.7017V4.03206ZM47.7957 4.03206H48.4009V10.1775H47.7957V4.03206ZM48.9127 4.03206H49.5179V10.1775H48.9127V4.03206ZM50.0302 4.03206H50.6354V10.1775H50.0302V4.03206ZM51.1476 4.03206H51.7528V10.1775H51.1476V4.03206ZM52.2648 4.03206H52.8469V10.1775H52.2648V4.03206Z" fill="#34BBDE"/>
<path fill-rule="evenodd" clip-rule="evenodd" d="M54.5953 20.4346H61.9695V27.8087H54.5953V20.4346ZM55.2095 21.0492H55.7918V27.1946H55.2095V21.0492ZM56.3036 21.0492H56.9088V27.1946H56.3036V21.0492ZM57.4211 21.0492H58.0263V27.1946H57.4211V21.0492ZM58.5381 21.0492H59.1433V27.1946H58.5381V21.0492ZM59.6558 21.0492H60.2609V27.1946H59.6558V21.0492ZM60.773 21.0492H61.3549V27.1946H60.773V21.0492Z" fill="#23A3C2"/>
<path fill-rule="evenodd" clip-rule="evenodd" d="M35.9828 39.7643C37.1061 39.7643 38.0168 40.6755 38.0168 41.7988C38.0168 42.9221 37.1061 43.8328 35.9828 43.8328C34.8592 43.8328 33.9483 42.9221 33.9483 41.7988C33.9483 40.6755 34.8592 39.7643 35.9828 39.7643Z" fill="#D3ECEC"/>
<path fill-rule="evenodd" clip-rule="evenodd" d="M35.9828 40.3415C36.1689 40.3415 36.3465 40.3765 36.5103 40.4401C36.3327 40.5427 36.2126 40.735 36.2126 40.955C36.2126 41.2835 36.4788 41.5493 36.8072 41.5493C37.0322 41.5493 37.2277 41.4243 37.3287 41.2398C37.4001 41.4118 37.4397 41.6007 37.4397 41.7988C37.4397 42.6033 36.7875 43.2555 35.9828 43.2555C35.1783 43.2555 34.5257 42.6033 34.5257 41.7988C34.5257 40.9939 35.1783 40.3415 35.9828 40.3415Z" fill="#364548"/>
<path fill-rule="evenodd" clip-rule="evenodd" d="M0 35.5488H94.6335C92.5729 35.0261 88.114 34.32 88.8494 31.6196C85.1027 35.9551 76.0669 34.6612 73.7866 32.5233C71.2472 36.2064 56.464 34.8065 55.4329 31.9372C52.2494 35.6733 42.3847 35.6733 39.201 31.9372C38.1695 34.8065 23.3865 36.2064 20.8469 32.5233C18.5665 34.6612 9.53156 35.9551 5.7845 31.6196C6.51984 34.32 2.06095 35.0261 0 35.5488Z" fill="#364548"/>
<path fill-rule="evenodd" clip-rule="evenodd" d="M41.3906 54.4242C36.3526 52.0334 33.5872 48.7836 32.0486 45.2356C30.1774 45.7698 27.9277 46.1112 25.3139 46.2579C24.3293 46.3131 23.2936 46.3414 22.2066 46.3414C20.9535 46.3414 19.6331 46.3043 18.2469 46.2308C22.867 50.8481 28.5508 54.4033 39.0748 54.4682C39.8518 54.4682 40.6232 54.4531 41.3906 54.4242Z" fill="#BDD9D7"/>
<path fill-rule="evenodd" clip-rule="evenodd" d="M33.92 48.5093C33.223 47.5632 32.5468 46.3741 32.0498 45.2352C30.1782 45.7696 27.9281 46.1112 25.3139 46.2579C27.1094 47.2326 29.6776 48.1357 33.92 48.5093Z" fill="#D3ECEC"/>
</g>
<defs>
<clipPath id="clip0">
<rect width="96" height="58" fill="white"/>
</clipPath>
</defs>
</svg>
