<svg width="99" height="100" viewBox="0 0 99 100" fill="none" xmlns="http://www.w3.org/2000/svg">
<g clip-path="url(#clip0)">
<path d="M96.7574 45.8475L53.6998 2.79269C53.1101 2.20283 52.41 1.73492 51.6395 1.41568C50.869 1.09644 50.0431 0.932129 49.209 0.932129C48.375 0.932129 47.5491 1.09644 46.7785 1.41568C46.008 1.73492 45.3079 2.20283 44.7182 2.79269L35.7773 11.7345L47.1194 23.0756C48.4525 22.6222 49.8861 22.5512 51.2575 22.8707C52.629 23.1902 53.8835 23.8874 54.8791 24.8834C55.88 25.8856 56.5788 27.1491 56.8957 28.5296C57.2126 29.9101 57.1348 31.3519 56.6712 32.6903L67.6003 43.6214C70.2449 42.7105 73.2968 43.3002 75.4082 45.4153C76.1102 46.1168 76.667 46.9498 77.047 47.8666C77.4269 48.7835 77.6224 49.7662 77.6224 50.7586C77.6224 51.751 77.4269 52.7337 77.047 53.6506C76.667 54.5674 76.1102 55.4004 75.4082 56.1019C74.1732 57.3381 72.5479 58.1081 70.809 58.2808C69.0701 58.4535 67.3251 58.0183 65.8711 57.0492C64.417 56.0801 63.3437 54.637 62.8338 52.9656C62.324 51.2942 62.4092 49.4978 63.0748 47.8821L52.8815 37.6888L52.8806 64.5142C53.6196 64.8796 54.2945 65.3623 54.8791 65.9435C55.581 66.6452 56.1378 67.4784 56.5177 68.3953C56.8976 69.3123 57.0931 70.2952 57.0931 71.2877C57.0931 72.2803 56.8976 73.2631 56.5177 74.1801C56.1378 75.097 55.581 75.9302 54.8791 76.632C51.9263 79.5848 47.1406 79.5848 44.1924 76.632C43.3117 75.7518 42.662 74.6677 42.3012 73.4759C41.9405 72.2842 41.8798 71.0218 42.1245 69.8009C42.3693 68.58 42.9119 67.4386 43.7042 66.478C44.4965 65.5174 45.5138 64.7675 46.6658 64.2949V37.2195C45.7391 36.8411 44.8979 36.2801 44.1924 35.57C41.9561 33.3364 41.4183 30.055 42.5642 27.3086L31.3842 16.1267L1.86146 45.6476C1.27152 46.2375 0.803553 46.9379 0.484277 47.7086C0.165001 48.4794 0.000671387 49.3055 0.000671387 50.1398C0.000671387 50.9741 0.165001 51.8002 0.484277 52.571C0.803553 53.3417 1.27152 54.0421 1.86146 54.632L44.9191 97.6878C46.1102 98.8786 47.7256 99.5476 49.4099 99.5476C51.0942 99.5476 52.7095 98.8786 53.9007 97.6878L96.7574 54.8329C97.9485 53.6411 98.6175 52.0251 98.6175 50.3402C98.6175 48.6553 97.9485 47.0393 96.7574 45.8475" fill="#DE4C36"/>
</g>
<defs>
<clipPath id="clip0">
<rect width="99" height="100" fill="white"/>
</clipPath>
</defs>
</svg>
