<svg width="68" height="66" viewBox="0 0 68 66" fill="none" xmlns="http://www.w3.org/2000/svg">
	<g clip-path="url(#clip0)">
		<path fill-rule="evenodd" clip-rule="evenodd" d="M33.1584 41.4537C37.13 42.7227 38.9343 40.6329 40.8199 37.5202C42.6683 34.4687 42.5875 32.3271 40.8273 29.242C38.9597 25.9681 36.9016 24.9504 33.1361 24.9474C29.4781 24.944 27.6244 26.1107 25.752 29.0926C23.7476 32.283 23.8101 34.557 25.7878 37.6955C27.6397 40.635 29.3453 42.6798 33.1584 41.4537ZM25.3384 25.1201C18.0909 25.1201 11.3532 25.0955 4.61683 25.1774C4.19403 25.1825 3.54017 25.9528 3.40303 26.4698C2.28095 30.6906 2.31196 34.9589 3.22089 39.2056C4.20844 43.8198 6.18616 47.9943 9.44364 51.8823C14.7448 42.9565 19.9092 34.2616 25.3384 25.1201ZM4.08483 22.4553C15.3838 22.4553 25.845 22.4553 36.5902 22.4553C32.9736 16.3764 29.5327 10.528 25.9726 4.74875C25.7275 4.35108 24.5011 4.1949 23.8896 4.3914C18.2718 6.19515 13.4362 9.23777 9.80835 13.7904C7.73978 16.3857 6.12807 19.3248 4.08483 22.4553ZM29.9931 44.282C30.1901 44.711 30.2901 44.9954 30.4412 45.25C33.6196 50.604 36.8291 55.9406 39.9634 61.3187C40.5216 62.2758 41.0304 62.4557 42.1176 62.1421C51.2339 59.5078 57.7873 53.9866 61.938 45.7169C62.1529 45.2899 62.2403 44.8031 62.4062 44.282C51.5598 44.282 40.8771 44.282 29.9931 44.282ZM41.2947 41.421C41.7681 41.5441 41.9494 41.6315 42.1307 41.6319C48.8784 41.6451 55.6266 41.626 62.3735 41.6803C63.5506 41.6888 63.7502 41.0288 63.952 40.1936C65.3977 34.2055 65.0885 28.3117 62.9002 22.5359C61.7205 19.4207 60.0957 16.5508 57.6777 13.8418C52.1512 23.1449 46.7823 32.1841 41.2947 41.421ZM21.8813 35.955C19.5869 39.8201 17.4489 43.3415 15.438 46.9294C15.2266 47.3055 15.5956 48.2235 15.98 48.6441C18.8915 51.8306 22.45 54.1275 26.6871 55.2403C28.536 55.7254 29.6127 56.6701 30.0638 58.4051C25.524 58.3092 21.6122 56.3531 13.5223 50.0849C12.7636 51.3293 12.0193 52.5491 11.2117 53.8728C15.9595 58.6814 21.6319 61.6196 28.2844 62.8029C29.241 62.9735 30.2102 63.1025 31.1794 63.1726C33.3523 63.3304 33.3536 63.3105 34.4941 66C31.5284 65.6359 28.7767 65.4966 26.1189 64.939C11.4677 61.8649 0.284445 48.588 0.0062183 34.0808C-0.289916 18.622 10.0189 5.17062 24.9754 1.37128C26.3941 1.01095 27.0178 1.31441 27.7166 2.50234C33.0676 11.5954 38.4914 20.6481 43.8948 29.7123C44.0538 29.9784 44.2385 30.2296 44.6185 30.7996C45.8472 28.7387 46.9592 26.8734 48.0699 25.0077C49.1767 23.1509 50.2302 21.2614 51.4091 19.4491C52.052 18.4607 51.914 17.7939 51.092 16.9846C47.7699 13.7162 43.9184 11.3378 39.2492 10.4507C37.5161 10.1214 36.4255 9.38631 36.0136 7.73153C40.0289 6.90986 46.4853 9.81921 53.5353 15.7067C54.194 14.6304 54.9579 13.627 55.4156 12.5053C55.5851 12.0915 55.1964 11.2283 54.7862 10.8594C49.1811 5.82846 42.5626 3.05832 34.9134 2.86861C33.1296 2.82404 32.1036 2.32366 31.7865 0C35.2195 0.42314 38.5827 0.526272 41.7808 1.28597C56.985 4.89518 67.4755 18.0987 67.4038 33.2633C67.3326 48.2468 56.6277 61.2759 41.5021 64.8872C39.8987 65.27 39.0959 64.8672 38.2866 63.4824C33.3174 54.9759 28.2477 46.525 23.2078 38.0575C22.8535 37.4621 22.4683 36.884 21.8813 35.955Z" fill="#fff"/>
	</g>
	<defs>
		<clipPath id="clip0">
			<rect width="67.4042" height="66" fill="white"/>
		</clipPath>
	</defs>
</svg>
