<svg width="45" height="51" viewBox="0 0 45 51" fill="none" xmlns="http://www.w3.org/2000/svg">
<g id="webpack">
<path id="outer" d="M43.5044 39.2343L23.376 50.8632V41.808L35.9175 34.7607L43.5044 39.2343ZM44.8832 37.961V13.6454L37.5206 17.9911V33.622L44.8832 37.961ZM1.47954 39.2343L21.6079 50.8632V41.808L9.05984 34.7607L1.47954 39.2343ZM0.100708 37.961V13.6454L7.4633 17.9911V33.622L0.100708 37.961ZM0.964954 12.0689L21.6079 0.143555V8.89552L8.38032 16.3269L8.27476 16.3876L0.964954 12.0689ZM44.0189 12.0689L23.376 0.143555V8.89552L36.6036 16.3202L36.7091 16.3808L44.0189 12.0689Z" fill="#8ED6FB"/>
<path id="inner" d="M21.6079 39.7464L9.23137 32.7933V19.0286L21.6079 26.3253V39.7464ZM23.376 39.7464L35.7525 32.8V19.0286L23.376 26.3253V39.7464ZM10.0692 17.4386L22.4919 10.4653L34.9146 17.4386L22.4919 24.7622L10.0692 17.4386Z" fill="#1C78C0"/>
</g>
</svg>
