<svg width="70" height="58" viewBox="0 0 70 58" fill="none" xmlns="http://www.w3.org/2000/svg">
<g clip-path="url(#clip0)">
<path d="M43.6999 16.82H45.6999L51.3998 11.12L51.6798 8.69999C48.4145 5.8179 44.4684 3.81582 40.2142 2.88286C35.96 1.9499 31.5382 2.11687 27.3664 3.36799C23.1947 4.61911 19.4108 6.91309 16.3721 10.0332C13.3334 13.1533 11.1403 16.9966 9.99997 21.2C10.635 20.9397 11.3384 20.8975 12 21.08L23.3999 19.2C23.3999 19.2 23.9799 18.24 24.2799 18.3C26.7226 15.6173 30.0983 13.9698 33.7159 13.6947C37.3336 13.4195 40.9196 14.5376 43.7399 16.82H43.6999Z" fill="#EA4335"/>
<path d="M59.5199 21.2C58.2098 16.3753 55.5197 12.0379 51.7799 8.72L43.7799 16.72C45.4472 18.0823 46.7834 19.8055 47.6876 21.7595C48.5919 23.7135 49.0406 25.8473 48.9999 28V29.42C49.9349 29.42 50.8608 29.6042 51.7246 29.962C52.5885 30.3198 53.3734 30.8442 54.0345 31.5054C54.6957 32.1665 55.2201 32.9514 55.5779 33.8153C55.9358 34.6791 56.1199 35.605 56.1199 36.54C56.1199 37.475 55.9358 38.4009 55.5779 39.2647C55.2201 40.1285 54.6957 40.9134 54.0345 41.5746C53.3734 42.2357 52.5885 42.7602 51.7246 43.118C50.8608 43.4758 49.9349 43.66 48.9999 43.66H34.7599L33.34 45.1V53.64L34.7599 55.06H48.9999C52.9764 55.0909 56.8572 53.8412 60.0683 51.4955C63.2795 49.1499 65.6503 45.833 66.8302 42.0354C68.01 38.2379 67.9362 34.1615 66.6197 30.4091C65.3032 26.6568 62.8138 23.4279 59.5199 21.2V21.2Z" fill="#4285F4"/>
<path d="M20.5 54.98H34.7399V43.58H20.5C19.4854 43.5798 18.4828 43.3615 17.56 42.94L15.56 43.56L9.81998 49.26L9.31998 51.26C12.5388 53.6906 16.4665 54.9975 20.5 54.98V54.98Z" fill="#34A853"/>
<path d="M20.4999 18C16.6416 18.023 12.8868 19.2506 9.75996 21.5112C6.63313 23.7718 4.29043 26.9526 3.05906 30.6092C1.8277 34.2659 1.76916 38.2158 2.89162 41.9074C4.01409 45.5989 6.26151 48.8477 9.31997 51.2L17.58 42.94C16.5303 42.4657 15.6113 41.7439 14.902 40.8365C14.1926 39.929 13.714 38.863 13.5072 37.7299C13.3003 36.5967 13.3715 35.4304 13.7146 34.3308C14.0577 33.2313 14.6624 32.2313 15.4768 31.4169C16.2913 30.6024 17.2912 29.9977 18.3908 29.6546C19.4903 29.3116 20.6567 29.2404 21.7898 29.4472C22.9229 29.654 23.9889 30.1326 24.8964 30.842C25.8039 31.5514 26.5257 32.4703 26.9999 33.52L35.2599 25.26C33.5262 22.9935 31.2917 21.1588 28.7312 19.8993C26.1706 18.6399 23.3535 17.9898 20.4999 18V18Z" fill="#FBBC05"/>
</g>
<defs>
<clipPath id="clip0">
<rect width="70" height="58" fill="white"/>
</clipPath>
</defs>
</svg>
