<svg width="82" height="82" viewBox="0 0 82 82" fill="none" xmlns="http://www.w3.org/2000/svg">
<g clip-path="url(#clip0)">
<g clip-path="url(#clip1)">
<path d="M152.186 48.8456C152.186 51.1313 153.906 51.5637 155.134 51.5637C156.916 51.5637 156.854 50.0811 156.854 48.9073V39.888C157.284 35.0077 161.092 29.695 162.873 29.695C164.04 29.695 164.163 31.3012 164.163 33.2162V45.7568C164.163 48.9073 166.067 51.5637 169.322 51.5637C174.605 51.5637 177.215 46.0039 178.259 41.9266C178.321 41.6795 178.321 41.556 178.321 41.4942C178.321 40.3205 177.154 38.9614 176.171 38.9614C175.557 38.9614 174.942 39.5174 174.697 40.8147C174.144 43.5328 172.885 47.4865 170.428 47.4865C168.831 47.4865 168.831 45.2008 168.831 44.6448V31.8571C168.831 29.0154 167.848 25.6178 163.733 25.6178C160.724 25.6178 158.512 28.2741 156.854 31.7336V28.9537C156.854 27.471 155.564 26.2355 153.537 26.2355C152.678 26.2355 151.94 26.668 151.94 27.2857C151.94 27.7181 152.186 28.0888 152.186 29.2625V48.8456V48.8456ZM40.7697 1C62.7274 1 80.5393 18.9151 80.5393 41C80.5393 63.0849 62.7274 81 40.7697 81C18.8119 81 1 63.0849 1 41C1 18.9151 18.8119 1 40.7697 1Z" fill="#2C8EBB"/>
<path d="M67.8253 53.1236C67.5489 50.9305 65.7063 49.417 63.3416 49.4479C59.81 49.4942 56.8464 51.332 54.881 52.5521C54.1132 53.0309 53.453 53.3861 52.8848 53.6486C53.0077 51.8571 52.9002 49.5097 51.9789 46.9305C50.858 43.8417 49.3532 41.9421 48.2783 40.8456C49.5221 39.0232 51.2265 36.3668 52.0249 32.2587C52.7159 28.7529 52.5009 23.3012 50.9194 20.2432C50.5969 19.6255 50.0595 19.1776 49.3839 18.9923C49.1075 18.9151 48.5854 18.7606 47.5566 19.0541C46.0057 15.8263 45.4683 15.4865 45.0537 15.2085C44.1938 14.6525 43.1804 14.529 42.2284 14.8842C40.9539 15.3475 39.8637 16.583 38.8349 18.7761C38.6814 19.1004 38.5432 19.4093 38.4203 19.7181C36.4702 19.8571 33.3992 20.5676 30.8042 23.3938C30.4818 23.749 29.8522 24.0116 29.1919 24.2587H29.2073C27.856 24.7375 27.2418 25.8494 26.4894 27.8571C25.4453 30.668 26.5201 33.4324 27.5796 35.2239C26.1363 36.5212 24.2169 38.5907 23.2034 41.0154C21.9443 44.0116 21.8061 46.9459 21.8522 48.5367C20.7773 49.6795 19.119 51.8263 18.9347 54.2355C18.689 57.6023 19.9021 59.888 20.4395 60.722C20.5931 60.9691 20.762 61.1699 20.9462 61.3707C20.8848 61.7876 20.8695 62.2355 20.9616 62.6988C21.1612 63.7799 21.8368 64.6602 22.8656 65.2162C24.8925 66.2973 27.7178 66.7606 29.8983 65.6641C30.6814 66.4981 32.1094 67.3012 34.7044 67.3012H34.8579C35.5182 67.3012 43.9021 66.8533 46.3436 66.251C47.4338 65.9884 48.1862 65.5251 48.6775 65.1081C50.2437 64.6139 54.5739 63.1313 58.6583 60.4749C61.5451 58.5907 62.5432 58.1892 64.6929 57.6641C66.7812 57.1544 68.0864 55.2394 67.8253 53.1236V53.1236ZM64.1708 55.3938C61.714 55.9807 60.4702 56.5212 57.4299 58.5135C52.6852 61.6023 47.4952 63.0386 47.4952 63.0386C47.4952 63.0386 47.0652 63.6873 45.8215 63.9807C43.6718 64.5058 35.5796 64.9537 34.8426 64.9691C32.8618 64.9846 31.6487 64.4595 31.3109 63.6409C30.2821 61.1699 32.785 60.0888 32.785 60.0888C32.785 60.0888 32.2322 59.749 31.9098 59.4402C31.618 59.1467 31.3109 58.5598 31.2188 58.7761C30.8349 59.7181 30.6353 62.0193 29.6065 63.0541C28.1938 64.4903 25.5221 64.0116 23.9405 63.1776C22.2054 62.251 24.0633 60.0734 24.0633 60.0734C24.0633 60.0734 23.1267 60.6293 22.3743 59.4865C21.6986 58.4363 21.0691 56.6448 21.238 54.4363C21.4222 51.9189 24.2169 49.4788 24.2169 49.4788C24.2169 49.4788 23.7255 45.7568 25.3378 41.9421C26.7965 38.4672 30.7274 35.6718 30.7274 35.6718C30.7274 35.6718 27.4261 31.9961 28.6545 28.6911C29.453 26.529 29.7754 26.5444 30.0365 26.4517C30.9578 26.0965 31.8484 25.7104 32.5086 24.9846C35.81 21.4015 40.0173 22.0811 40.0173 22.0811C40.0173 22.0811 42.0134 15.9807 43.856 17.1699C44.4242 17.5405 46.4664 22.112 46.4664 22.112C46.4664 22.112 48.6468 20.8301 48.8925 21.3089C50.213 23.888 50.3666 28.8147 49.7831 31.8108C48.8004 36.7529 46.3436 39.4093 45.3608 41.0772C45.1305 41.4633 48.0019 42.6834 49.8138 47.7336C51.4875 52.3514 49.9981 56.2278 50.2591 56.6602C50.3052 56.7374 50.3205 56.7683 50.3205 56.7683C50.3205 56.7683 52.2399 56.9228 56.094 54.529C58.1516 53.2471 60.5931 51.8108 63.3723 51.7799C66.0595 51.7336 66.1977 54.8996 64.1708 55.3938V55.3938Z" fill="white"/>
</g>
</g>
<defs>
<clipPath id="clip0">
<rect width="82" height="82" fill="white"/>
</clipPath>
<clipPath id="clip1">
<rect width="177.321" height="80" fill="white" transform="translate(1 1)"/>
</clipPath>
</defs>
</svg>
